<svg width="20" height="20" viewBox="0 0 20 20" fill="none" xmlns="http://www.w3.org/2000/svg">
<path d="M9.75 18.75C14.7206 18.75 18.75 14.7206 18.75 9.75C18.75 4.77944 14.7206 0.75 9.75 0.75C4.77944 0.75 0.75 4.77944 0.75 9.75C0.75 11.1897 1.08805 12.5505 1.68912 13.7572C1.84884 14.0779 1.90201 14.4445 1.80941 14.7906L1.27336 16.794C1.04066 17.6637 1.83631 18.4593 2.70601 18.2266L4.70945 17.6906C5.05554 17.598 5.42209 17.6512 5.74278 17.8109C6.94953 18.4119 8.31029 18.75 9.75 18.75Z" stroke="white" stroke-width="1.5"/>
<path d="M6.14893 8.40039H13.3489" stroke="white" stroke-width="1.5" stroke-linecap="round"/>
<path d="M6.14893 11.5508H11.0989" stroke="white" stroke-width="1.5" stroke-linecap="round"/>
</svg>
