<svg width="17" height="18" viewBox="0 0 17 18" fill="none" xmlns="http://www.w3.org/2000/svg">
<g clip-path="url(#clip0_2052_3973)">
<path d="M1.50199 17.2674C1.18952 17.2515 0.905206 17.3036 0.625465 17.234C0.602424 17.0749 0.722625 17.0084 0.796038 16.9224C2.7728 14.6047 4.74849 12.2862 6.73618 9.97798C6.9183 9.76656 6.9104 9.63737 6.75954 9.41769C4.77262 6.52414 2.79564 3.6237 0.817923 0.72378C0.738756 0.607692 0.635202 0.50301 0.60791 0.349636C0.696996 0.229071 0.82763 0.278739 0.938129 0.278443C2.34076 0.274694 3.74347 0.283059 5.14599 0.270004C5.42199 0.267435 5.57867 0.368261 5.73033 0.592897C6.98031 2.44433 8.24266 4.28731 9.50253 6.13198C9.56381 6.2217 9.63683 6.30329 9.696 6.37812C9.84042 6.38867 9.88316 6.28444 9.94412 6.21332C11.5606 4.32557 13.178 2.43862 14.7873 0.544642C14.9516 0.35118 15.1205 0.256701 15.3766 0.270882C15.7304 0.290473 16.0861 0.275797 16.4966 0.275797C16.2884 0.669716 16.0211 0.916812 15.7906 1.18785C14.1236 3.14739 12.4482 5.0997 10.7755 7.05428C10.4108 7.48043 10.4167 7.47631 10.7319 7.93737C12.7752 10.9261 14.8158 13.9166 16.8561 16.9074C16.9165 16.9959 16.9987 17.0763 17.0001 17.2028C16.9173 17.3029 16.8001 17.2643 16.6985 17.2645C15.2739 17.2676 13.8493 17.2627 12.4248 17.2711C12.2045 17.2724 12.0659 17.204 11.9394 17.0175C10.6112 15.0597 9.27473 13.1076 7.93905 11.1549C7.85338 11.0297 7.78944 10.8844 7.60816 10.7736C7.28522 11.1481 6.95713 11.5257 6.63218 11.9059C5.15362 13.6362 3.67294 15.3646 2.20149 17.101C2.00426 17.3338 1.76327 17.2428 1.50199 17.2674ZM9.8554 11.8548C10.5758 12.8947 11.294 13.9361 12.0176 14.9737C12.2877 15.3609 12.4968 15.8603 12.8674 16.0882C13.2542 16.3262 13.8064 16.1481 14.2859 16.1581C14.4942 16.1625 14.7128 16.206 14.9386 16.105C14.8645 15.9924 14.8066 15.9001 14.7446 15.8108C11.6142 11.3017 8.46804 6.80366 5.3703 2.27204C4.93125 1.62977 4.48738 1.31891 3.72521 1.43429C3.38973 1.48507 3.04035 1.44285 2.62098 1.44285C5.06022 4.95354 7.44417 8.38465 9.8554 11.8548Z" fill="white"/>
</g>
<defs>
<clipPath id="clip0_2052_3973">
<rect width="17" height="18" fill="white"/>
</clipPath>
</defs>
</svg>
